<?xml version="1.0" encoding="UTF-8"?>
<svg xmlns="http://www.w3.org/2000/svg" xmlns:xlink="http://www.w3.org/1999/xlink" width="75px" height="75px" viewBox="0 0 75 75" version="1.1">
<g id="surface1">
<path style=" stroke:none;fill-rule:nonzero;fill:rgb(76.470588%,50.588235%,33.333333%);fill-opacity:1;" d="M 37.507812 19.71875 L 36.609375 18 C 36.0625 16.914062 34.734375 16.453125 33.652344 16.972656 C 33.46875 17.050781 33.300781 17.167969 33.15625 17.296875 C 32.246094 18.085938 32.179688 19.460938 33.007812 20.371094 C 33.132812 20.515625 33.289062 20.644531 33.457031 20.75 L 35.273438 21.75 "/>
<path style=" stroke:none;fill-rule:nonzero;fill:rgb(32.156863%,30.980392%,45.882353%);fill-opacity:1;" d="M 35.578125 21.25 C 35.839844 21.398438 35.945312 21.71875 35.8125 21.992188 C 35.664062 22.257812 35.34375 22.363281 35.070312 22.226562 L 33.234375 21.269531 L 33.195312 21.25 C 32.988281 21.125 32.792969 20.957031 32.625 20.78125 C 31.570312 19.667969 31.632812 17.9375 32.753906 16.914062 C 32.9375 16.75 33.144531 16.609375 33.367188 16.503906 C 34.71875 15.828125 36.367188 16.375 37.070312 17.703125 L 38 19.40625 C 38.144531 19.679688 38.046875 20.007812 37.78125 20.148438 C 37.507812 20.292969 37.179688 20.195312 37.03125 19.929688 L 36.101562 18.222656 C 35.671875 17.414062 34.667969 17.078125 33.859375 17.480469 C 33.71875 17.546875 33.59375 17.636719 33.484375 17.734375 C 32.820312 18.328125 32.792969 19.355469 33.429688 20.03125 C 33.523438 20.136719 33.632812 20.226562 33.757812 20.304688 Z M 35.578125 21.25 "/>
<path style=" stroke:none;fill-rule:nonzero;fill:rgb(76.470588%,50.588235%,33.333333%);fill-opacity:1;" d="M 41.113281 57.273438 C 42.832031 57.304688 46.632812 56.726562 48.15625 57.273438 C 49.171875 57.625 50.320312 58.195312 51.601562 58.953125 L 53.78125 56.726562 C 54.382812 55.488281 55.382812 52.898438 55.164062 51.789062 C 54.882812 50.3125 52.070312 51.296875 50.46875 50.476562 C 49.328125 49.882812 47.753906 47.734375 47.0625 47.195312 "/>
<path style=" stroke:none;fill-rule:nonzero;fill:rgb(32.156863%,30.980392%,45.882353%);fill-opacity:1;" d="M 53.328125 56.40625 C 54.109375 54.765625 54.773438 52.65625 54.628906 51.882812 C 54.5625 51.5625 54.199219 51.453125 52.859375 51.425781 C 52.65625 51.414062 52.460938 51.40625 52.257812 51.40625 C 51.375 51.359375 50.761719 51.25 50.226562 50.96875 C 49.8125 50.761719 49.382812 50.398438 48.867188 49.890625 C 48.652344 49.679688 48.4375 49.453125 48.222656 49.21875 C 48.046875 49.023438 47.441406 48.359375 47.335938 48.234375 C 47.039062 47.921875 46.855469 47.726562 46.726562 47.625 C 46.484375 47.441406 46.445312 47.101562 46.621094 46.867188 C 46.804688 46.621094 47.148438 46.570312 47.390625 46.757812 C 47.585938 46.90625 47.8125 47.128906 48.144531 47.5 C 48.261719 47.617188 48.859375 48.289062 49.03125 48.476562 C 49.226562 48.703125 49.433594 48.90625 49.648438 49.121094 C 50.078125 49.550781 50.4375 49.84375 50.722656 49.992188 C 51.09375 50.175781 51.582031 50.273438 52.304688 50.304688 C 52.46875 50.3125 52.585938 50.3125 52.890625 50.320312 C 53.757812 50.351562 54.132812 50.382812 54.53125 50.5 C 55.164062 50.671875 55.585938 51.0625 55.703125 51.679688 C 55.917969 52.78125 55.1875 55.097656 54.277344 56.960938 L 54.238281 57.039062 L 51.6875 59.648438 L 51.320312 59.421875 C 50.070312 58.679688 48.953125 58.132812 47.96875 57.78125 C 47.375 57.578125 46.269531 57.539062 44.5625 57.636719 C 44.257812 57.65625 43.964844 57.675781 43.546875 57.703125 C 41.984375 57.8125 41.621094 57.832031 41.101562 57.820312 C 40.90625 57.8125 40.734375 57.703125 40.632812 57.539062 C 40.539062 57.363281 40.539062 57.15625 40.644531 56.992188 C 40.742188 56.816406 40.929688 56.71875 41.125 56.71875 C 41.59375 56.726562 41.953125 56.710938 43.46875 56.609375 C 43.808594 56.582031 44.148438 56.5625 44.492188 56.542969 C 46.359375 56.4375 47.546875 56.476562 48.339844 56.757812 C 49.289062 57.089844 50.34375 57.597656 51.503906 58.261719 Z M 53.328125 56.40625 "/>
<path style=" stroke:none;fill-rule:nonzero;fill:rgb(76.470588%,50.588235%,33.333333%);fill-opacity:1;" d="M 52.695312 58.757812 C 51.921875 58.75 50.859375 58.476562 50.585938 58.015625 C 49.890625 56.835938 50.292969 54.53125 50.59375 53.652344 C 50.890625 52.773438 51.789062 51.542969 53 50.761719 C 53.953125 50.15625 55.578125 49.835938 56.609375 50.617188 C 57.648438 51.386719 57.0625 53.640625 56.386719 55.292969 C 55.515625 57.46875 54.015625 58.78125 52.695312 58.757812 Z M 52.695312 58.757812 "/>
<path style=" stroke:none;fill-rule:nonzero;fill:rgb(32.156863%,30.980392%,45.882353%);fill-opacity:1;" d="M 52.695312 58.757812 C 51.921875 58.75 50.859375 58.476562 50.585938 58.015625 C 49.890625 56.835938 50.292969 54.53125 50.59375 53.652344 C 50.890625 52.773438 51.789062 51.542969 53 50.761719 C 53.953125 50.15625 55.578125 49.835938 56.609375 50.617188 C 57.648438 51.386719 57.0625 53.640625 56.386719 55.292969 C 55.515625 57.46875 54.015625 58.78125 52.695312 58.757812 Z M 57.414062 55.703125 C 57.832031 54.65625 58.125 53.640625 58.234375 52.753906 C 58.378906 51.445312 58.132812 50.382812 57.265625 49.734375 C 55.917969 48.71875 53.867188 48.90625 52.402344 49.84375 C 51.085938 50.683594 49.960938 52.089844 49.550781 53.300781 C 49.003906 54.921875 48.867188 57.246094 49.648438 58.574219 C 50.148438 59.421875 51.445312 59.835938 52.675781 59.851562 C 54.570312 59.882812 56.398438 58.203125 57.414062 55.703125 Z M 57.414062 55.703125 "/>
<path style=" stroke:none;fill-rule:nonzero;fill:rgb(100%,86.666667%,67.843137%);fill-opacity:1;" d="M 56.476562 52.507812 C 56.113281 52.34375 55.703125 52.53125 55.234375 52.765625 C 54.765625 53.007812 54.023438 53.652344 53.75 54.210938 C 53.523438 54.679688 53.195312 55.46875 53.222656 56.335938 C 53.242188 56.765625 53.378906 57.226562 53.796875 57.390625 C 54.171875 57.546875 54.679688 57.304688 54.921875 57.0625 C 55.15625 56.816406 55.664062 56.25 55.96875 55.566406 C 56.269531 54.875 56.476562 53.964844 56.542969 53.640625 C 56.601562 53.320312 56.828125 52.664062 56.476562 52.507812 Z M 56.476562 52.507812 "/>
<path style=" stroke:none;fill-rule:nonzero;fill:rgb(32.156863%,30.980392%,45.882353%);fill-opacity:1;" d="M 56.835938 50.605469 L 55.929688 51.738281 C 55.742188 51.972656 55.398438 52.011719 55.15625 51.816406 C 54.921875 51.632812 54.882812 51.289062 55.078125 51.046875 L 55.984375 49.914062 C 56.171875 49.679688 56.515625 49.640625 56.757812 49.835938 C 56.992188 50.019531 57.03125 50.359375 56.835938 50.605469 Z M 55.3125 50.332031 L 54.757812 51.113281 C 54.578125 51.367188 54.238281 51.414062 53.992188 51.242188 C 53.742188 51.0625 53.679688 50.722656 53.867188 50.476562 L 54.421875 49.695312 C 54.539062 49.53125 54.726562 49.445312 54.921875 49.460938 C 55.117188 49.484375 55.292969 49.609375 55.371094 49.785156 C 55.449219 49.960938 55.429688 50.175781 55.3125 50.332031 Z M 55.3125 50.332031 "/>
<path style=" stroke:none;fill-rule:nonzero;fill:rgb(76.470588%,50.588235%,33.333333%);fill-opacity:1;" d="M 45.554688 35.625 C 47.1875 39.941406 48.039062 43.078125 48.117188 45.039062 C 48.171875 46.601562 48.007812 48.652344 47.597656 51.164062 C 46.992188 54.882812 43.78125 57.617188 40.007812 57.617188 L 32.773438 57.617188 C 28.984375 57.617188 25.90625 54.550781 25.90625 50.761719 C 25.90625 49.523438 26.242188 48.3125 26.875 47.257812 C 27.382812 46.386719 27.765625 45.65625 28.007812 45.039062 C 28.71875 43.261719 29.101562 40.085938 29.160156 35.507812 C 26.953125 34.289062 25.46875 31.921875 25.507812 29.226562 C 25.566406 25.039062 28.742188 21.542969 32.898438 21.09375 C 34.316406 20.9375 35.546875 20.859375 36.582031 20.851562 C 37.804688 20.851562 39.328125 20.996094 41.164062 21.28125 C 45.242188 21.921875 48.328125 25.332031 48.5625 29.453125 L 48.585938 29.757812 C 48.71875 32.207031 47.492188 34.40625 45.554688 35.625 Z M 45.554688 35.625 "/>
<path style=" stroke:none;fill-rule:nonzero;fill:rgb(32.156863%,30.980392%,45.882353%);fill-opacity:1;" d="M 48.585938 29.757812 L 48.5625 29.453125 C 48.328125 25.332031 45.242188 21.921875 41.164062 21.28125 C 39.328125 20.996094 37.804688 20.851562 36.582031 20.851562 C 35.546875 20.859375 34.316406 20.9375 32.898438 21.09375 C 28.742188 21.542969 25.566406 25.039062 25.507812 29.226562 C 25.46875 31.921875 26.953125 34.289062 29.160156 35.507812 C 29.101562 40.085938 28.71875 43.261719 28.007812 45.039062 C 27.765625 45.65625 27.382812 46.386719 26.875 47.257812 C 26.242188 48.3125 25.90625 49.523438 25.90625 50.761719 C 25.90625 54.550781 28.984375 57.617188 32.773438 57.617188 L 40.007812 57.617188 C 43.78125 57.617188 46.992188 54.882812 47.597656 51.164062 C 48.007812 48.652344 48.171875 46.601562 48.117188 45.039062 C 48.039062 43.078125 47.1875 39.941406 45.554688 35.625 C 47.492188 34.40625 48.71875 32.207031 48.585938 29.757812 Z M 46.875 36.023438 C 48.351562 40.039062 49.132812 43.007812 49.210938 44.992188 C 49.277344 46.648438 49.101562 48.757812 48.679688 51.335938 C 48 55.59375 44.328125 58.71875 40.007812 58.71875 L 32.773438 58.71875 C 28.378906 58.71875 24.8125 55.15625 24.8125 50.761719 C 24.8125 49.328125 25.195312 47.921875 25.929688 46.6875 C 26.414062 45.878906 26.765625 45.1875 26.992188 44.628906 C 27.597656 43.09375 27.96875 40.234375 28.046875 36.125 C 25.742188 34.589844 24.375 31.984375 24.414062 29.210938 C 24.472656 24.460938 28.066406 20.507812 32.78125 20 C 34.238281 19.84375 35.5 19.757812 36.582031 19.757812 C 37.859375 19.757812 39.445312 19.902344 41.335938 20.195312 C 45.929688 20.917969 49.394531 24.746094 49.65625 29.394531 L 49.679688 29.695312 C 49.8125 32.140625 48.78125 34.492188 46.875 36.023438 Z M 46.875 36.023438 "/>
<path style=" stroke:none;fill-rule:nonzero;fill:rgb(100%,86.666667%,67.843137%);fill-opacity:1;" d="M 41.007812 39.023438 C 41.601562 38.925781 42.34375 38.976562 43.242188 39.1875 C 44.628906 39.523438 45.773438 40.5 46.308594 41.828125 C 46.992188 43.535156 47.304688 45.28125 47.246094 47.070312 C 47.195312 48.574219 46.894531 50.078125 46.347656 51.570312 C 45.722656 53.300781 44.070312 54.453125 42.226562 54.453125 L 39.472656 54.453125 C 37.023438 54.453125 35.039062 52.46875 35.039062 50.03125 C 35.039062 49.746094 35.070312 49.453125 35.125 49.179688 C 35.292969 48.328125 35.410156 47.625 35.476562 47.070312 C 35.539062 46.699219 35.546875 46.257812 35.527344 45.773438 C 35.398438 42.460938 37.742188 39.570312 41.007812 39.023438 Z M 41.007812 39.023438 "/>
<path style=" stroke:none;fill-rule:nonzero;fill:rgb(32.156863%,30.980392%,45.882353%);fill-opacity:1;" d="M 28.40625 36.308594 C 29.578125 36.894531 30.695312 37.246094 31.738281 37.351562 C 32.039062 37.382812 32.304688 37.15625 32.335938 36.867188 C 32.363281 36.5625 32.148438 36.289062 31.84375 36.257812 C 30.945312 36.171875 29.960938 35.859375 28.898438 35.332031 C 28.625 35.195312 28.300781 35.304688 28.164062 35.578125 C 28.027344 35.851562 28.132812 36.179688 28.40625 36.308594 Z M 28.40625 36.308594 "/>
<path style=" stroke:none;fill-rule:nonzero;fill:rgb(76.470588%,50.588235%,33.333333%);fill-opacity:1;" d="M 32.871094 55.476562 C 32.101562 56.84375 30.9375 57.675781 29.023438 58.09375 C 28.703125 58.164062 28.378906 58.242188 28.046875 58.273438 L 24.304688 58.457031 L 23.039062 55.945312 C 21.28125 52.46875 22.726562 48.554688 26.25 46.828125 C 27.0625 46.425781 27.804688 46.398438 28.679688 45.75 "/>
<path style=" stroke:none;fill-rule:nonzero;fill:rgb(32.156863%,30.980392%,45.882353%);fill-opacity:1;" d="M 23.523438 55.695312 C 21.921875 52.519531 23.210938 48.925781 26.492188 47.3125 C 26.6875 47.21875 26.875 47.148438 27.167969 47.050781 L 27.304688 47 C 28.117188 46.738281 28.484375 46.570312 29.003906 46.191406 C 29.25 46.007812 29.296875 45.671875 29.121094 45.429688 C 28.9375 45.1875 28.601562 45.125 28.359375 45.3125 C 27.960938 45.605469 27.664062 45.734375 26.960938 45.957031 C 26.894531 45.984375 26.867188 45.996094 26.828125 46.007812 C 26.484375 46.125 26.25 46.210938 26.007812 46.328125 C 22.1875 48.210938 20.664062 52.460938 22.546875 56.191406 L 23.984375 59.023438 L 28.078125 58.820312 C 28.367188 58.789062 28.585938 58.75 29.042969 58.652344 C 29.09375 58.640625 29.109375 58.640625 29.140625 58.632812 C 31.171875 58.195312 32.492188 57.285156 33.351562 55.742188 C 33.496094 55.476562 33.398438 55.148438 33.132812 55 C 32.871094 54.84375 32.539062 54.941406 32.390625 55.203125 C 31.6875 56.464844 30.644531 57.179688 28.90625 57.558594 L 28.796875 57.578125 C 28.398438 57.675781 28.222656 57.703125 28.007812 57.726562 L 24.640625 57.890625 Z M 23.523438 55.695312 "/>
<path style=" stroke:none;fill-rule:nonzero;fill:rgb(32.156863%,30.980392%,45.882353%);fill-opacity:1;" d="M 32.558594 53.964844 C 32.558594 54.367188 32.890625 54.695312 33.289062 54.695312 C 33.703125 54.695312 34.023438 54.367188 34.023438 53.964844 C 34.023438 53.554688 33.703125 53.234375 33.289062 53.234375 C 32.890625 53.234375 32.558594 53.554688 32.558594 53.964844 Z M 32.558594 53.964844 "/>
<path style=" stroke:none;fill-rule:nonzero;fill:rgb(76.470588%,50.588235%,33.333333%);fill-opacity:1;" d="M 24.316406 58.476562 C 26.414062 58.144531 27.804688 55.820312 27.402344 53.28125 C 27.15625 51.765625 26.570312 50.15625 25.5 49.460938 C 24.773438 49.003906 23.703125 49.160156 22.859375 49.296875 C 21.835938 49.460938 20.605469 49.570312 20.046875 50.46875 C 19.453125 51.414062 19.5625 53.195312 19.765625 54.492188 C 20.175781 57.03125 22.207031 58.808594 24.316406 58.476562 Z M 24.316406 58.476562 "/>
<path style=" stroke:none;fill-rule:nonzero;fill:rgb(32.156863%,30.980392%,45.882353%);fill-opacity:1;" d="M 24.316406 58.476562 C 26.414062 58.144531 27.804688 55.820312 27.402344 53.28125 C 27.15625 51.765625 26.570312 50.15625 25.5 49.460938 C 24.773438 49.003906 23.703125 49.160156 22.859375 49.296875 C 21.835938 49.460938 20.605469 49.570312 20.046875 50.46875 C 19.453125 51.414062 19.5625 53.195312 19.765625 54.492188 C 20.175781 57.03125 22.207031 58.808594 24.316406 58.476562 Z M 24.484375 59.5625 C 21.726562 60 19.179688 57.753906 18.679688 54.667969 C 18.367188 52.6875 18.417969 51.007812 19.109375 49.890625 C 19.679688 48.976562 20.546875 48.585938 21.835938 48.351562 C 22 48.320312 22.140625 48.300781 22.421875 48.25 C 22.558594 48.234375 22.617188 48.222656 22.6875 48.210938 C 23.359375 48.105469 23.757812 48.054688 24.226562 48.066406 C 24.929688 48.066406 25.546875 48.203125 26.085938 48.535156 C 27.382812 49.367188 28.15625 51.054688 28.484375 53.117188 C 28.976562 56.203125 27.234375 59.121094 24.484375 59.5625 Z M 24.484375 59.5625 "/>
<path style=" stroke:none;fill-rule:nonzero;fill:rgb(100%,86.666667%,67.843137%);fill-opacity:1;" d="M 23.15625 51.699219 C 24.34375 51.476562 25.488281 52.265625 25.703125 53.457031 C 25.710938 53.546875 25.734375 53.632812 25.734375 53.71875 L 25.828125 55.421875 C 25.890625 56.367188 25.214844 57.207031 24.277344 57.351562 C 23.320312 57.507812 22.390625 56.953125 22.070312 56.035156 L 21.53125 54.484375 C 21.152344 53.367188 21.726562 52.167969 22.84375 51.777344 C 22.9375 51.75 23.046875 51.71875 23.15625 51.699219 Z M 23.15625 51.699219 "/>
<path style=" stroke:none;fill-rule:nonzero;fill:rgb(32.156863%,30.980392%,45.882353%);fill-opacity:1;" d="M 20.390625 49.875 L 20.59375 51.164062 C 20.617188 51.359375 20.75 51.523438 20.9375 51.59375 C 21.125 51.671875 21.328125 51.632812 21.484375 51.515625 C 21.640625 51.386719 21.710938 51.179688 21.679688 50.984375 L 21.476562 49.707031 C 21.425781 49.414062 21.152344 49.210938 20.851562 49.257812 C 20.554688 49.304688 20.351562 49.578125 20.390625 49.875 Z M 24.238281 49.101562 L 24.550781 50.566406 C 24.609375 50.859375 24.902344 51.046875 25.195312 50.984375 C 25.5 50.917969 25.683594 50.632812 25.625 50.332031 L 25.3125 48.875 C 25.242188 48.585938 24.960938 48.390625 24.65625 48.457031 C 24.367188 48.515625 24.171875 48.808594 24.238281 49.101562 Z M 22.140625 49.054688 L 22.453125 50.695312 C 22.507812 50.984375 22.804688 51.179688 23.09375 51.125 C 23.390625 51.0625 23.585938 50.78125 23.535156 50.488281 L 23.222656 48.847656 C 23.164062 48.546875 22.882812 48.351562 22.578125 48.40625 C 22.285156 48.46875 22.089844 48.75 22.140625 49.054688 Z M 22.140625 49.054688 "/>
<path style=" stroke:none;fill-rule:nonzero;fill:rgb(76.470588%,50.588235%,33.333333%);fill-opacity:1;" d="M 28.585938 24.773438 L 26.257812 23.4375 C 25.007812 22.804688 24.472656 21.25 25.058594 19.980469 C 25.15625 19.773438 25.28125 19.578125 25.429688 19.40625 C 26.347656 18.351562 27.9375 18.28125 28.992188 19.25 C 29.160156 19.40625 29.316406 19.589844 29.445312 19.785156 L 30.59375 21.914062 "/>
<path style=" stroke:none;fill-rule:nonzero;fill:rgb(32.156863%,30.980392%,45.882353%);fill-opacity:1;" d="M 30.117188 22.167969 C 30.265625 22.429688 30.585938 22.53125 30.851562 22.382812 C 31.113281 22.246094 31.21875 21.914062 31.074219 21.648438 L 29.921875 19.523438 L 29.902344 19.484375 C 29.757812 19.25 29.570312 19.03125 29.367188 18.847656 C 28.085938 17.664062 26.132812 17.753906 25.019531 19.042969 C 24.835938 19.257812 24.679688 19.492188 24.5625 19.757812 C 23.847656 21.28125 24.492188 23.144531 25.996094 23.925781 L 28.3125 25.253906 C 28.5625 25.390625 28.898438 25.304688 29.042969 25.039062 C 29.199219 24.785156 29.109375 24.453125 28.859375 24.296875 L 26.53125 22.96875 L 26.515625 22.949219 C 25.515625 22.441406 25.097656 21.210938 25.554688 20.214844 C 25.632812 20.046875 25.734375 19.902344 25.851562 19.765625 C 26.554688 18.945312 27.792969 18.898438 28.625 19.65625 C 28.75 19.773438 28.867188 19.914062 28.964844 20.058594 Z M 30.117188 22.167969 "/>
<path style=" stroke:none;fill-rule:nonzero;fill:rgb(100%,55.294118%,55.294118%);fill-opacity:1;" d="M 26.5625 20.78125 L 26.6875 20.605469 C 26.894531 20.3125 27.234375 20.136719 27.597656 20.136719 C 27.960938 20.136719 28.289062 20.3125 28.496094 20.605469 L 28.992188 21.308594 C 29.25 21.679688 29.1875 22.179688 28.859375 22.46875 C 28.507812 22.792969 28 22.871094 27.558594 22.675781 L 27.03125 22.441406 C 26.71875 22.304688 26.492188 22.039062 26.40625 21.71875 C 26.308594 21.398438 26.375 21.054688 26.5625 20.78125 Z M 26.5625 20.78125 "/>
<path style=" stroke:none;fill-rule:nonzero;fill:rgb(100%,100%,100%);fill-opacity:1;" d="M 46.328125 23.859375 C 46.75 22.570312 46.085938 21.191406 44.835938 20.789062 C 43.59375 20.390625 42.234375 21.101562 41.816406 22.390625 C 41.398438 23.691406 42.070312 25.058594 43.3125 25.46875 C 44.5625 25.867188 45.90625 25.15625 46.328125 23.859375 Z M 46.328125 23.859375 "/>
<path style=" stroke:none;fill-rule:nonzero;fill:rgb(32.156863%,30.980392%,45.882353%);fill-opacity:1;" d="M 44.082031 26.132812 C 42.460938 26.132812 41.164062 24.785156 41.164062 23.125 C 41.164062 21.476562 42.460938 20.125 44.082031 20.125 C 45.695312 20.125 46.992188 21.476562 46.992188 23.125 C 46.992188 24.785156 45.695312 26.132812 44.082031 26.132812 Z M 44.082031 25.039062 C 45.078125 25.039062 45.898438 24.1875 45.898438 23.125 C 45.898438 22.070312 45.078125 21.21875 44.082031 21.21875 C 43.078125 21.21875 42.257812 22.070312 42.257812 23.125 C 42.257812 24.1875 43.078125 25.039062 44.082031 25.039062 Z M 44.082031 25.039062 "/>
<path style=" stroke:none;fill-rule:nonzero;fill:rgb(13.72549%,13.72549%,13.72549%);fill-opacity:1;" d="M 44.511719 23.90625 C 44.648438 24.082031 44.863281 24.179688 45.085938 24.179688 C 45.507812 24.179688 45.851562 23.828125 45.851562 23.390625 C 45.851562 22.960938 45.507812 22.609375 45.085938 22.609375 C 44.667969 22.609375 44.328125 22.949219 44.328125 23.378906 L 44.882812 23.46875 Z M 44.511719 23.90625 "/>
<path style=" stroke:none;fill-rule:nonzero;fill:rgb(100%,100%,100%);fill-opacity:1;" d="M 36.035156 22.773438 C 36.035156 24.335938 37.304688 25.605469 38.867188 25.605469 C 40.4375 25.605469 41.710938 24.335938 41.710938 22.773438 C 41.710938 21.210938 40.4375 19.941406 38.867188 19.941406 C 37.304688 19.941406 36.035156 21.210938 36.035156 22.773438 Z M 36.035156 22.773438 "/>
<path style=" stroke:none;fill-rule:nonzero;fill:rgb(32.156863%,30.980392%,45.882353%);fill-opacity:1;" d="M 38.867188 26.164062 C 37 26.164062 35.488281 24.640625 35.488281 22.773438 C 35.488281 20.90625 37 19.394531 38.867188 19.394531 C 40.742188 19.394531 42.257812 20.90625 42.257812 22.773438 C 42.257812 24.640625 40.742188 26.164062 38.867188 26.164062 Z M 38.867188 25.058594 C 40.136719 25.058594 41.164062 24.03125 41.164062 22.773438 C 41.164062 21.515625 40.136719 20.488281 38.867188 20.488281 C 37.609375 20.488281 36.582031 21.515625 36.582031 22.773438 C 36.582031 24.03125 37.609375 25.058594 38.867188 25.058594 Z M 38.867188 25.058594 "/>
<path style=" stroke:none;fill-rule:nonzero;fill:rgb(13.72549%,13.72549%,13.72549%);fill-opacity:1;" d="M 39.445312 23.886719 C 39.71875 24.210938 40.195312 24.289062 40.554688 24.070312 C 40.929688 23.859375 41.09375 23.40625 40.945312 23.007812 C 40.800781 22.609375 40.390625 22.363281 39.96875 22.429688 C 39.550781 22.5 39.238281 22.859375 39.226562 23.289062 L 39.882812 23.378906 Z M 39.445312 23.886719 "/>
<path style=" stroke:none;fill-rule:nonzero;fill:rgb(100%,86.666667%,67.843137%);fill-opacity:1;" d="M 41.492188 25.789062 L 43.992188 25.789062 C 46.375 25.789062 48.3125 27.726562 48.3125 30.109375 C 48.3125 30.28125 48.300781 30.460938 48.273438 30.644531 C 47.929688 33.40625 45.578125 35.488281 42.78125 35.488281 L 40.390625 35.488281 C 37.988281 35.488281 36.035156 33.535156 36.035156 31.132812 C 36.035156 30.96875 36.046875 30.800781 36.0625 30.644531 C 36.375 27.882812 38.710938 25.789062 41.492188 25.789062 Z M 41.492188 25.789062 "/>
<path style=" stroke:none;fill-rule:nonzero;fill:rgb(32.156863%,30.980392%,45.882353%);fill-opacity:1;" d="M 43.015625 29.851562 C 43.125 30.742188 43.125 31.601562 43.015625 32.421875 C 42.921875 33.222656 42.703125 33.886719 42.207031 34.863281 C 42.078125 35.109375 42.265625 35.34375 42.546875 35.460938 C 42.820312 35.578125 43.234375 35.117188 43.359375 34.863281 C 43.886719 33.757812 43.992188 33.476562 44.109375 32.546875 C 44.21875 31.640625 44.21875 30.703125 44.109375 29.726562 C 44.070312 29.433594 43.796875 29.226562 43.507812 29.257812 C 43.203125 29.296875 42.988281 29.5625 43.015625 29.851562 Z M 43.015625 29.851562 "/>
<path style=" stroke:none;fill-rule:nonzero;fill:rgb(79.607843%,66.27451%,47.058824%);fill-opacity:1;" d="M 37.988281 30.078125 C 38.015625 29.980469 37.96875 29.882812 37.871094 29.851562 C 37.773438 29.8125 37.675781 29.875 37.648438 29.96875 C 37.609375 30.058594 37.664062 30.164062 37.765625 30.195312 C 37.851562 30.226562 37.960938 30.175781 37.988281 30.078125 Z M 37.988281 30.078125 "/>
<path style=" stroke:none;fill-rule:nonzero;fill:rgb(79.607843%,66.27451%,47.058824%);fill-opacity:1;" d="M 37.273438 31.308594 C 37.3125 31.21875 37.257812 31.113281 37.15625 31.085938 C 37.070312 31.054688 36.960938 31.101562 36.933594 31.203125 C 36.90625 31.296875 36.953125 31.398438 37.050781 31.4375 C 37.148438 31.464844 37.246094 31.40625 37.273438 31.308594 Z M 37.273438 31.308594 "/>
<path style=" stroke:none;fill-rule:nonzero;fill:rgb(79.607843%,66.27451%,47.058824%);fill-opacity:1;" d="M 38.164062 32.726562 C 38.203125 32.625 38.144531 32.519531 38.046875 32.492188 C 37.960938 32.460938 37.851562 32.507812 37.820312 32.609375 C 37.792969 32.703125 37.84375 32.8125 37.9375 32.84375 C 38.039062 32.871094 38.132812 32.820312 38.164062 32.726562 Z M 38.164062 32.726562 "/>
<path style=" stroke:none;fill-rule:nonzero;fill:rgb(79.607843%,66.27451%,47.058824%);fill-opacity:1;" d="M 39.5 32.636719 C 39.53125 32.539062 39.484375 32.429688 39.382812 32.402344 C 39.289062 32.375 39.179688 32.421875 39.148438 32.519531 C 39.121094 32.617188 39.171875 32.726562 39.265625 32.753906 C 39.367188 32.78125 39.472656 32.734375 39.5 32.636719 Z M 39.5 32.636719 "/>
<path style=" stroke:none;fill-rule:nonzero;fill:rgb(79.607843%,66.27451%,47.058824%);fill-opacity:1;" d="M 38.484375 31.515625 C 38.523438 31.375 38.457031 31.21875 38.3125 31.179688 C 38.171875 31.132812 38.015625 31.210938 37.976562 31.347656 C 37.929688 31.484375 38.007812 31.640625 38.144531 31.679688 C 38.289062 31.726562 38.4375 31.648438 38.484375 31.515625 Z M 38.484375 31.515625 "/>
<path style=" stroke:none;fill-rule:nonzero;fill:rgb(79.607843%,66.27451%,47.058824%);fill-opacity:1;" d="M 38.664062 33.9375 C 38.703125 33.796875 38.625 33.652344 38.484375 33.601562 C 38.351562 33.554688 38.195312 33.632812 38.15625 33.769531 C 38.105469 33.914062 38.183594 34.0625 38.320312 34.109375 C 38.46875 34.148438 38.613281 34.082031 38.664062 33.9375 Z M 38.664062 33.9375 "/>
<path style=" stroke:none;fill-rule:nonzero;fill:rgb(79.607843%,66.27451%,47.058824%);fill-opacity:1;" d="M 39.539062 34.511719 C 39.570312 34.421875 39.523438 34.316406 39.421875 34.289062 C 39.328125 34.257812 39.21875 34.304688 39.1875 34.40625 C 39.160156 34.5 39.210938 34.601562 39.304688 34.628906 C 39.40625 34.667969 39.511719 34.609375 39.539062 34.511719 Z M 39.539062 34.511719 "/>
<path style=" stroke:none;fill-rule:nonzero;fill:rgb(79.607843%,66.27451%,47.058824%);fill-opacity:1;" d="M 39.890625 33.476562 C 39.921875 33.378906 39.875 33.273438 39.773438 33.242188 C 39.679688 33.210938 39.570312 33.261719 39.539062 33.359375 C 39.511719 33.457031 39.5625 33.5625 39.65625 33.59375 C 39.757812 33.625 39.863281 33.574219 39.890625 33.476562 Z M 39.890625 33.476562 "/>
<path style=" stroke:none;fill-rule:nonzero;fill:rgb(79.607843%,66.27451%,47.058824%);fill-opacity:1;" d="M 40.117188 32.480469 C 40.15625 32.34375 40.078125 32.195312 39.941406 32.148438 C 39.804688 32.109375 39.648438 32.179688 39.609375 32.324219 C 39.5625 32.460938 39.640625 32.609375 39.773438 32.65625 C 39.921875 32.695312 40.070312 32.625 40.117188 32.480469 Z M 40.117188 32.480469 "/>
<path style=" stroke:none;fill-rule:nonzero;fill:rgb(79.607843%,66.27451%,47.058824%);fill-opacity:1;" d="M 37.273438 32.375 C 37.3125 32.273438 37.257812 32.167969 37.15625 32.140625 C 37.070312 32.109375 36.960938 32.15625 36.933594 32.257812 C 36.90625 32.351562 36.953125 32.460938 37.050781 32.492188 C 37.148438 32.519531 37.246094 32.46875 37.273438 32.375 Z M 37.273438 32.375 "/>
<path style=" stroke:none;fill-rule:nonzero;fill:rgb(79.607843%,66.27451%,47.058824%);fill-opacity:1;" d="M 47.585938 30.605469 C 47.617188 30.507812 47.570312 30.410156 47.46875 30.382812 C 47.375 30.34375 47.273438 30.398438 47.234375 30.5 C 47.207031 30.59375 47.265625 30.695312 47.363281 30.722656 C 47.453125 30.761719 47.558594 30.703125 47.585938 30.605469 Z M 47.585938 30.605469 "/>
<path style=" stroke:none;fill-rule:nonzero;fill:rgb(79.607843%,66.27451%,47.058824%);fill-opacity:1;" d="M 47.585938 32.023438 C 47.617188 31.921875 47.570312 31.816406 47.46875 31.789062 C 47.375 31.757812 47.273438 31.804688 47.234375 31.90625 C 47.207031 32 47.265625 32.109375 47.363281 32.140625 C 47.453125 32.167969 47.558594 32.117188 47.585938 32.023438 Z M 47.585938 32.023438 "/>
<path style=" stroke:none;fill-rule:nonzero;fill:rgb(79.607843%,66.27451%,47.058824%);fill-opacity:1;" d="M 47.0625 33.078125 C 47.089844 32.976562 47.03125 32.882812 46.933594 32.84375 C 46.84375 32.8125 46.738281 32.871094 46.710938 32.960938 C 46.679688 33.054688 46.726562 33.164062 46.828125 33.195312 C 46.921875 33.222656 47.023438 33.171875 47.0625 33.078125 Z M 47.0625 33.078125 "/>
<path style=" stroke:none;fill-rule:nonzero;fill:rgb(79.607843%,66.27451%,47.058824%);fill-opacity:1;" d="M 48.039062 29.8125 C 48.066406 29.71875 48.007812 29.617188 47.921875 29.578125 C 47.820312 29.550781 47.714844 29.609375 47.6875 29.707031 C 47.65625 29.796875 47.703125 29.902344 47.804688 29.929688 C 47.898438 29.960938 48 29.914062 48.039062 29.8125 Z M 48.039062 29.8125 "/>
<path style=" stroke:none;fill-rule:nonzero;fill:rgb(79.607843%,66.27451%,47.058824%);fill-opacity:1;" d="M 47.9375 31.308594 C 47.976562 31.21875 47.921875 31.113281 47.820312 31.085938 C 47.734375 31.054688 47.625 31.101562 47.597656 31.203125 C 47.570312 31.296875 47.617188 31.398438 47.714844 31.4375 C 47.8125 31.464844 47.910156 31.40625 47.9375 31.308594 Z M 47.9375 31.308594 "/>
<path style=" stroke:none;fill-rule:nonzero;fill:rgb(79.607843%,66.27451%,47.058824%);fill-opacity:1;" d="M 46.960938 31.757812 C 47 31.660156 46.945312 31.554688 46.84375 31.523438 C 46.757812 31.492188 46.648438 31.542969 46.621094 31.640625 C 46.59375 31.738281 46.640625 31.835938 46.738281 31.875 C 46.835938 31.90625 46.933594 31.84375 46.960938 31.757812 Z M 46.960938 31.757812 "/>
<path style=" stroke:none;fill-rule:nonzero;fill:rgb(79.607843%,66.27451%,47.058824%);fill-opacity:1;" d="M 48.210938 30.695312 C 48.242188 30.59375 48.195312 30.5 48.09375 30.46875 C 48 30.4375 47.890625 30.488281 47.859375 30.585938 C 47.832031 30.683594 47.882812 30.78125 47.976562 30.8125 C 48.078125 30.851562 48.183594 30.789062 48.210938 30.695312 Z M 48.210938 30.695312 "/>
<path style=" stroke:none;fill-rule:nonzero;fill:rgb(79.607843%,66.27451%,47.058824%);fill-opacity:1;" d="M 39.578125 31.25 C 39.628906 31.113281 39.550781 30.96875 39.40625 30.917969 C 39.265625 30.867188 39.121094 30.945312 39.070312 31.085938 C 39.03125 31.21875 39.101562 31.375 39.25 31.414062 C 39.382812 31.464844 39.53125 31.386719 39.578125 31.25 Z M 39.578125 31.25 "/>
<path style=" stroke:none;fill-rule:nonzero;fill:rgb(54.509804%,40.392157%,30.980392%);fill-opacity:1;" d="M 42.382812 27.03125 L 44.335938 27.03125 C 44.609375 27.03125 44.863281 27.140625 45.046875 27.34375 C 45.226562 27.546875 45.3125 27.8125 45.273438 28.085938 C 45.203125 28.691406 44.6875 29.140625 44.082031 29.140625 L 42.988281 29.140625 C 42.335938 29.140625 41.765625 28.710938 41.582031 28.085938 C 41.515625 27.832031 41.5625 27.570312 41.71875 27.351562 C 41.875 27.148438 42.117188 27.03125 42.382812 27.03125 Z M 42.382812 27.03125 "/>
<path style=" stroke:none;fill-rule:nonzero;fill:rgb(32.156863%,30.980392%,45.882353%);fill-opacity:1;" d="M 42.382812 27.03125 C 42.117188 27.03125 41.875 27.148438 41.71875 27.351562 C 41.5625 27.570312 41.515625 27.832031 41.582031 28.085938 C 41.765625 28.710938 42.335938 29.140625 42.988281 29.140625 L 44.082031 29.140625 C 44.6875 29.140625 45.203125 28.691406 45.273438 28.085938 C 45.3125 27.8125 45.226562 27.546875 45.046875 27.34375 C 44.863281 27.140625 44.609375 27.03125 44.335938 27.03125 Z M 42.382812 25.929688 L 44.335938 25.929688 C 45.46875 25.929688 46.375 26.84375 46.375 27.96875 C 46.375 28.054688 46.375 28.132812 46.367188 28.210938 C 46.230469 29.375 45.242188 30.242188 44.082031 30.242188 L 42.988281 30.242188 C 41.84375 30.242188 40.851562 29.484375 40.527344 28.390625 C 40.234375 27.375 40.820312 26.296875 41.84375 26.007812 C 42.023438 25.957031 42.195312 25.929688 42.382812 25.929688 Z M 42.382812 25.929688 "/>
<path style=" stroke:none;fill-rule:nonzero;fill:rgb(76.470588%,50.588235%,33.333333%);fill-opacity:1;" d="M 29.09375 38.515625 C 31.855469 40.28125 33.417969 41.542969 36.085938 42.117188 C 37.0625 42.324219 39.25 42.15625 42.1875 42.285156 C 44.210938 42.375 45.839844 44.015625 45.742188 46.054688 C 45.742188 46.179688 45.734375 46.296875 45.710938 46.40625 C 45.421875 48.507812 43.496094 49.960938 41.425781 49.679688 C 41.320312 49.65625 41.210938 49.640625 41.113281 49.617188 C 38.117188 48.9375 36.398438 48.585938 31.648438 44.980469 "/>
<path style=" stroke:none;fill-rule:nonzero;fill:rgb(32.156863%,30.980392%,45.882353%);fill-opacity:1;" d="M 28.703125 39.132812 C 29.199219 39.433594 30.710938 40.390625 30.800781 40.4375 C 31.5625 40.917969 32.128906 41.242188 32.6875 41.523438 C 33.757812 42.078125 34.773438 42.441406 35.9375 42.675781 C 36.320312 42.742188 36.828125 42.773438 37.617188 42.765625 C 37.96875 42.765625 39.601562 42.734375 40.046875 42.734375 C 40.78125 42.726562 41.453125 42.726562 42.140625 42.742188 C 43.898438 42.792969 45.273438 44.179688 45.226562 45.890625 C 45.226562 45.996094 45.214844 46.09375 45.203125 46.191406 C 44.980469 47.988281 43.359375 49.265625 41.582031 49.054688 C 41.492188 49.042969 41.40625 49.023438 41.320312 49.015625 L 40.867188 48.914062 C 40.058594 48.742188 39.570312 48.632812 39.070312 48.496094 C 37.011719 47.929688 35.148438 46.945312 31.984375 44.628906 C 31.738281 44.453125 31.398438 44.511719 31.21875 44.757812 C 31.046875 44.992188 31.09375 45.332031 31.335938 45.515625 C 34.589844 47.898438 36.570312 48.945312 38.789062 49.5625 C 39.304688 49.695312 39.804688 49.8125 40.644531 49.992188 L 41.09375 50.085938 C 41.210938 50.109375 41.328125 50.125 41.445312 50.148438 C 43.828125 50.4375 45.996094 48.730469 46.289062 46.328125 C 46.308594 46.191406 46.320312 46.054688 46.320312 45.929688 C 46.386719 43.59375 44.511719 41.710938 42.167969 41.648438 C 41.453125 41.632812 40.742188 41.632812 40.039062 41.632812 C 39.578125 41.640625 37.960938 41.671875 37.609375 41.671875 C 36.894531 41.671875 36.4375 41.648438 36.152344 41.59375 C 35.085938 41.386719 34.171875 41.054688 33.183594 40.546875 C 32.65625 40.28125 32.117188 39.96875 31.386719 39.511719 C 31.296875 39.453125 29.785156 38.507812 29.277344 38.195312 C 29.015625 38.039062 28.679688 38.117188 28.515625 38.367188 C 28.359375 38.632812 28.445312 38.964844 28.703125 39.132812 Z M 28.703125 39.132812 "/>
<path style=" stroke:none;fill-rule:nonzero;fill:rgb(76.470588%,50.588235%,33.333333%);fill-opacity:1;" d="M 42.335938 36.515625 C 43.195312 36.425781 43.953125 36.398438 44.609375 36.40625 C 47.402344 36.445312 49.628906 38.742188 49.589844 41.53125 C 49.578125 41.867188 49.539062 42.207031 49.472656 42.539062 L 48.847656 45.359375 C 48.691406 42.871094 47.949219 41.621094 46.621094 41.621094 C 46.464844 41.621094 46.289062 41.632812 46.09375 41.640625 C 45.671875 42.753906 44.65625 43.601562 43.398438 43.75 C 43.273438 43.757812 43.15625 43.769531 43.027344 43.769531 L 42.226562 43.769531 C 40.226562 43.769531 38.59375 42.140625 38.59375 40.136719 C 38.59375 40.085938 38.59375 40.039062 38.601562 39.992188 C 38.59375 39.960938 38.59375 39.921875 38.59375 39.882812 C 38.59375 38.28125 39.734375 36.921875 41.289062 36.632812 C 41.59375 36.554688 41.90625 36.515625 42.226562 36.515625 C 42.265625 36.515625 42.304688 36.515625 42.335938 36.515625 Z M 42.335938 36.515625 "/>
<path style=" stroke:none;fill-rule:nonzero;fill:rgb(32.156863%,30.980392%,45.882353%);fill-opacity:1;" d="M 48.9375 42.421875 C 48.992188 42.128906 49.03125 41.828125 49.03125 41.523438 C 49.070312 39.03125 47.089844 36.992188 44.601562 36.953125 C 43.964844 36.945312 43.234375 36.984375 42.382812 37.0625 L 42.324219 37.0625 C 42.023438 37.050781 41.71875 37.078125 41.425781 37.15625 L 41.386719 37.167969 C 40.085938 37.421875 39.148438 38.554688 39.148438 39.882812 C 39.148438 39.914062 39.148438 39.941406 39.148438 39.96875 L 39.148438 40.019531 C 39.148438 40.058594 39.148438 40.097656 39.148438 40.136719 C 39.148438 41.835938 40.527344 43.222656 42.226562 43.222656 L 43.027344 43.222656 C 44.171875 43.222656 45.1875 42.507812 45.578125 41.445312 L 45.703125 41.113281 L 46.0625 41.09375 C 46.269531 41.085938 46.453125 41.074219 46.621094 41.074219 C 47.664062 41.074219 48.40625 41.640625 48.867188 42.726562 Z M 44.617188 35.859375 C 47.703125 35.898438 50.1875 38.445312 50.136719 41.542969 C 50.125 41.914062 50.085938 42.285156 50.007812 42.65625 L 48.554688 49.296875 L 48.300781 45.398438 C 48.164062 43.15625 47.578125 42.179688 46.621094 42.179688 C 46.570312 42.179688 46.515625 42.179688 46.453125 42.179688 C 45.820312 43.484375 44.492188 44.316406 43.027344 44.316406 L 42.226562 44.316406 C 39.921875 44.316406 38.046875 42.441406 38.046875 40.136719 C 38.046875 40.085938 38.046875 40.046875 38.046875 40 C 38.046875 39.960938 38.046875 39.921875 38.046875 39.882812 C 38.046875 38.027344 39.355469 36.445312 41.164062 36.09375 C 41.542969 35.996094 41.921875 35.957031 42.3125 35.957031 C 43.183594 35.878906 43.945312 35.851562 44.617188 35.859375 Z M 44.617188 35.859375 "/>
<path style=" stroke:none;fill-rule:nonzero;fill:rgb(32.156863%,30.980392%,45.882353%);fill-opacity:1;" d="M 46.09375 39.785156 C 46.09375 39.851562 46.085938 39.960938 46.054688 40.085938 C 45.976562 40.382812 45.828125 40.789062 45.59375 41.296875 C 45.46875 41.570312 45.59375 41.894531 45.867188 42.023438 C 46.140625 42.148438 46.476562 42.03125 46.601562 41.75 C 47.167969 40.5 47.351562 39.726562 47.050781 39.226562 C 46.90625 38.976562 46.570312 38.886719 46.320312 39.03125 C 46.0625 39.179688 45.96875 39.5 46.09375 39.765625 C 46.09375 39.765625 46.09375 39.773438 46.09375 39.785156 Z M 46.09375 39.785156 "/>
</g>
</svg>
